<mxfile host="app.diagrams.net" modified="2023-12-18T12:30:19.647Z" agent="Mozilla/5.0 (Macintosh; Intel Mac OS X 10_15_7) AppleWebKit/537.36 (KHTML, like Gecko) Chrome/120.0.0.0 Safari/537.36" etag="AvbrL6zk58XciNj5I6C5" version="22.1.11" type="device">
  <diagram name="Page-1" id="G8xC4TLMplP_cjCgwflv">
    <mxGraphModel dx="1363" dy="761" grid="1" gridSize="10" guides="1" tooltips="1" connect="1" arrows="1" fold="1" page="1" pageScale="1" pageWidth="827" pageHeight="1169" math="0" shadow="0">
      <root>
        <mxCell id="0" />
        <mxCell id="1" parent="0" />
        <mxCell id="KF5b0qLCicFsRabfVmVb-3" style="edgeStyle=orthogonalEdgeStyle;rounded=0;orthogonalLoop=1;jettySize=auto;html=1;entryX=0.5;entryY=0;entryDx=0;entryDy=0;" edge="1" parent="1" source="KF5b0qLCicFsRabfVmVb-4" target="KF5b0qLCicFsRabfVmVb-6">
          <mxGeometry relative="1" as="geometry" />
        </mxCell>
        <mxCell id="KF5b0qLCicFsRabfVmVb-4" value="" style="ellipse;whiteSpace=wrap;html=1;aspect=fixed;fillColor=#000000;" vertex="1" parent="1">
          <mxGeometry x="235" y="80" width="30" height="30" as="geometry" />
        </mxCell>
        <mxCell id="KF5b0qLCicFsRabfVmVb-5" style="edgeStyle=orthogonalEdgeStyle;rounded=0;orthogonalLoop=1;jettySize=auto;html=1;exitX=0;exitY=0;exitDx=0;exitDy=0;" edge="1" parent="1" source="KF5b0qLCicFsRabfVmVb-6">
          <mxGeometry relative="1" as="geometry">
            <mxPoint x="190" y="190" as="targetPoint" />
            <Array as="points">
              <mxPoint x="150" y="300" />
              <mxPoint x="100" y="300" />
              <mxPoint x="100" y="140" />
              <mxPoint x="190" y="140" />
            </Array>
          </mxGeometry>
        </mxCell>
        <mxCell id="KF5b0qLCicFsRabfVmVb-11" style="edgeStyle=orthogonalEdgeStyle;rounded=0;orthogonalLoop=1;jettySize=auto;html=1;entryX=0;entryY=0.5;entryDx=0;entryDy=0;" edge="1" parent="1" source="KF5b0qLCicFsRabfVmVb-6" target="KF5b0qLCicFsRabfVmVb-10">
          <mxGeometry relative="1" as="geometry" />
        </mxCell>
        <mxCell id="KF5b0qLCicFsRabfVmVb-6" value="Validate" style="swimlane;whiteSpace=wrap;html=1;" vertex="1" parent="1">
          <mxGeometry x="150" y="200" width="200" height="200" as="geometry" />
        </mxCell>
        <mxCell id="KF5b0qLCicFsRabfVmVb-7" value="do/check user" style="text;html=1;align=center;verticalAlign=middle;resizable=0;points=[];autosize=1;strokeColor=none;fillColor=none;" vertex="1" parent="KF5b0qLCicFsRabfVmVb-6">
          <mxGeometry x="50" y="68" width="100" height="30" as="geometry" />
        </mxCell>
        <mxCell id="KF5b0qLCicFsRabfVmVb-8" value="Login" style="text;html=1;align=center;verticalAlign=middle;resizable=0;points=[];autosize=1;strokeColor=none;fillColor=none;" vertex="1" parent="1">
          <mxGeometry x="260" y="128" width="50" height="30" as="geometry" />
        </mxCell>
        <mxCell id="KF5b0qLCicFsRabfVmVb-9" value="[not valid]" style="text;html=1;align=center;verticalAlign=middle;resizable=0;points=[];autosize=1;strokeColor=none;fillColor=none;" vertex="1" parent="1">
          <mxGeometry x="20" y="200" width="70" height="30" as="geometry" />
        </mxCell>
        <mxCell id="KF5b0qLCicFsRabfVmVb-15" style="edgeStyle=orthogonalEdgeStyle;rounded=0;orthogonalLoop=1;jettySize=auto;html=1;entryX=0;entryY=0.5;entryDx=0;entryDy=0;" edge="1" parent="1" source="KF5b0qLCicFsRabfVmVb-10" target="KF5b0qLCicFsRabfVmVb-14">
          <mxGeometry relative="1" as="geometry" />
        </mxCell>
        <mxCell id="KF5b0qLCicFsRabfVmVb-10" value="Default Interface" style="swimlane;whiteSpace=wrap;html=1;" vertex="1" parent="1">
          <mxGeometry x="480" y="200" width="200" height="200" as="geometry" />
        </mxCell>
        <mxCell id="KF5b0qLCicFsRabfVmVb-13" value="do/load default interface" style="text;html=1;align=center;verticalAlign=middle;resizable=0;points=[];autosize=1;strokeColor=none;fillColor=none;" vertex="1" parent="KF5b0qLCicFsRabfVmVb-10">
          <mxGeometry x="25" y="68" width="150" height="30" as="geometry" />
        </mxCell>
        <mxCell id="KF5b0qLCicFsRabfVmVb-12" value="[valid]" style="text;html=1;align=center;verticalAlign=middle;resizable=0;points=[];autosize=1;strokeColor=none;fillColor=none;" vertex="1" parent="1">
          <mxGeometry x="389" y="270" width="50" height="30" as="geometry" />
        </mxCell>
        <mxCell id="KF5b0qLCicFsRabfVmVb-19" style="edgeStyle=orthogonalEdgeStyle;rounded=0;orthogonalLoop=1;jettySize=auto;html=1;entryX=0;entryY=0.5;entryDx=0;entryDy=0;" edge="1" parent="1" source="KF5b0qLCicFsRabfVmVb-14" target="KF5b0qLCicFsRabfVmVb-18">
          <mxGeometry relative="1" as="geometry">
            <mxPoint x="1280" y="300" as="targetPoint" />
          </mxGeometry>
        </mxCell>
        <mxCell id="KF5b0qLCicFsRabfVmVb-14" value="Modify Interface" style="swimlane;whiteSpace=wrap;html=1;" vertex="1" parent="1">
          <mxGeometry x="950" y="200" width="200" height="200" as="geometry" />
        </mxCell>
        <mxCell id="KF5b0qLCicFsRabfVmVb-17" value="do/make interface changes" style="text;html=1;align=center;verticalAlign=middle;resizable=0;points=[];autosize=1;strokeColor=none;fillColor=none;" vertex="1" parent="KF5b0qLCicFsRabfVmVb-14">
          <mxGeometry x="15" y="68" width="170" height="30" as="geometry" />
        </mxCell>
        <mxCell id="KF5b0qLCicFsRabfVmVb-16" value="[interfaced loaded]/select customise option" style="text;html=1;align=center;verticalAlign=middle;resizable=0;points=[];autosize=1;strokeColor=none;fillColor=none;" vertex="1" parent="1">
          <mxGeometry x="690" y="270" width="250" height="30" as="geometry" />
        </mxCell>
        <mxCell id="KF5b0qLCicFsRabfVmVb-24" style="edgeStyle=orthogonalEdgeStyle;rounded=0;orthogonalLoop=1;jettySize=auto;html=1;" edge="1" parent="1" source="KF5b0qLCicFsRabfVmVb-18" target="KF5b0qLCicFsRabfVmVb-22">
          <mxGeometry relative="1" as="geometry" />
        </mxCell>
        <mxCell id="KF5b0qLCicFsRabfVmVb-18" value="Save Interface" style="swimlane;whiteSpace=wrap;html=1;" vertex="1" parent="1">
          <mxGeometry x="1330" y="200" width="200" height="200" as="geometry" />
        </mxCell>
        <mxCell id="KF5b0qLCicFsRabfVmVb-21" value="do/save session preferences" style="text;html=1;align=center;verticalAlign=middle;resizable=0;points=[];autosize=1;strokeColor=none;fillColor=none;" vertex="1" parent="KF5b0qLCicFsRabfVmVb-18">
          <mxGeometry x="10" y="68" width="180" height="30" as="geometry" />
        </mxCell>
        <mxCell id="KF5b0qLCicFsRabfVmVb-20" value="[changes made]/save initated" style="text;html=1;align=center;verticalAlign=middle;resizable=0;points=[];autosize=1;strokeColor=none;fillColor=none;" vertex="1" parent="1">
          <mxGeometry x="1150" y="268" width="180" height="30" as="geometry" />
        </mxCell>
        <mxCell id="KF5b0qLCicFsRabfVmVb-22" value="" style="ellipse;whiteSpace=wrap;html=1;aspect=fixed;" vertex="1" parent="1">
          <mxGeometry x="1410" y="520" width="40" height="40" as="geometry" />
        </mxCell>
        <mxCell id="KF5b0qLCicFsRabfVmVb-23" value="" style="ellipse;whiteSpace=wrap;html=1;aspect=fixed;fillColor=#000000;" vertex="1" parent="1">
          <mxGeometry x="1415" y="525" width="30" height="30" as="geometry" />
        </mxCell>
        <mxCell id="KF5b0qLCicFsRabfVmVb-25" value="[session preferences saved]" style="text;html=1;align=center;verticalAlign=middle;resizable=0;points=[];autosize=1;strokeColor=none;fillColor=none;" vertex="1" parent="1">
          <mxGeometry x="1260" y="438" width="170" height="30" as="geometry" />
        </mxCell>
      </root>
    </mxGraphModel>
  </diagram>
</mxfile>
